#!OML:ASF F:\VICON\USERDATA\INSTALL\rory3\rory3.ASF
:FULLY-SPECIFIED
:DEGREES
167
root 14.783 17.7854 -2.01765 -134.29 -88.3999 133.573
lowerback 14.0917 1.89687 3.14474
upperback 1.75591 2.95549 0.79075
thorax -5.91829 1.34552 -1.49252
lowerneck -15.1425 -0.452483 -10.621
upperneck 38.5545 -0.619976 4.98353
head 16.4317 -1.60706 3.85667
rclavicle -4.77083e-015 -1.19271e-014
rhumerus -33.7538 -17.2948 -71.9042
rradius 39.126
rwrist 3.48473
rhand -16.6919 8.61366
rfingers 7.12502
rthumb 9.53264 -21.1507
lclavicle -4.77083e-015 -1.19271e-014
lhumerus -34.2933 13.0517 77.8363
lradius 34.6352
lwrist -4.24552
lhand -21.3302 22.2292
lfingers 7.12502
lthumb 5.05553 52.1489
rfemur -5.28205 1.84654 15.0001
rtibia 29.159
rfoot -23.6151 10.3082
rtoes 2.79776
lfemur -14.6812 -13.2633 -5.76533
ltibia 25.2073
lfoot -7.0399 -2.50644
ltoes -5.40625
168
root 14.7504 17.768 -1.92738 -147.552 -88.1119 146.839
lowerback 13.9995 1.97375 3.23147
upperback 1.78362 3.06606 0.809969
thorax -5.82933 1.39963 -1.53661
lowerneck -15.2122 -0.448639 -10.3324
upperneck 38.6207 -0.646594 4.81529
head 16.4847 -1.60378 3.72741
rclavicle 8.64713e-015 -9.54166e-015
rhumerus -33.6347 -17.1003 -72.0143
rradius 38.9977
rwrist 3.49746
rhand -16.7906 8.57982
rfingers 7.12502
rthumb 9.43742 -21.1889
lclavicle 8.64713e-015 -9.54166e-015
lhumerus -34.3437 13.2933 77.7058
lradius 34.6065
lwrist -4.21839
lhand -21.1907 22.2911
lfingers 7.12502
lthumb 5.19021 52.2076
rfemur -5.29009 2.18328 14.8321
rtibia 29.1998
rfoot -23.5898 10.3586
rtoes 2.52746
lfemur -14.3096 -14.2524 -4.96172
ltibia 24.0302
lfoot -5.95666 -2.50126
ltoes -5.0253
169
root 14.7145 17.7566 -1.84013 -155.086 -87.627 154.344
lowerback 13.9289 2.09789 3.15982
upperback 1.80946 3.21358 0.779504
thorax -5.75823 1.47484 -1.55142
lowerneck -15.0894 -0.463131 -10.1927
upperneck 38.4694 -0.701518 4.75391
head 16.3789 -1.6077 3.65807
rclavicle 1.39149e-015 -9.54166e-015
rhumerus -33.4402 -16.8349 -72.1815
rradius 38.7539
rwrist 3.41035
rhand -16.8689 8.36442
rfingers 7.12502
rthumb 9.36188 -21.4077
lclavicle 1.39149e-015 -9.54166e-015
lhumerus -34.3498 13.637 77.4876
lradius 34.4632
lwrist -4.53583
lhand -20.8811 22.4372
lfingers 7.12502
lthumb 5.48912 52.3461
rfemur -5.27169 2.47315 14.5401
rtibia 29.2545
rfoot -23.6423 10.3663
rtoes 1.6276
lfemur -13.8437 -15.1055 -4.33505
ltibia 22.8649
lfoot -4.83802 -2.62894
ltoes -5.63391
170
root 14.6808 17.7453 -1.74701 -159.503 -87.059 158.631
lowerback 13.964 2.16737 3.05328
upperback 1.88133 3.28591 0.785953
thorax -5.7044 1.51305 -1.49746
lowerneck -15.0627 -0.420832 -10.3509
upperneck 38.3901 -0.626703 4.85772
head 16.3228 -1.58296 3.74222
rclavicle -1.68967e-014 0
rhumerus -33.0459 -16.6616 -72.2769
rradius 38.4076
rwrist 3.58148
rhand -16.9821 8.30279
rfingers 7.12502
rthumb 9.25265 -21.4742
lclavicle -1.68967e-014 0
lhumerus -34.3792 13.9916 77.3495
lradius 34.3381
lwrist -4.69417
lhand -20.9877 22.6795
lfingers 7.12502
lthumb 5.38621 52.591
rfemur -5.17487 2.5748 14.1104
rtibia 29.2607
rfoot -23.5 10.9539
rtoes 1.89845
lfemur -13.2643 -16.0066 -3.82945
ltibia 21.724
lfoot -3.64634 -2.80576
ltoes -4.88325
171
root 14.6451 17.7351 -1.64544 -162.936 -86.4725 161.897
lowerback 14.0703 2.22333 3.03005
upperback 1.93828 3.35458 0.772501
thorax -5.69997 1.54613 -1.5142
lowerneck -15.2075 -0.385036 -10.3351
upperneck 38.5257 -0.588908 4.89115
head 16.4248 -1.5702 3.76684
rclavicle 4.87022e-015 3.18055e-015
rhumerus -32.8484 -16.5418 -72.3983
rradius 38.2071
rwrist 3.64948
rhand -17.1857 8.18434
rfingers 7.12502
rthumb 9.05613 -21.6012
lclavicle 4.87022e-015 3.18055e-015
lhumerus -34.4941 14.2455 77.2127
lradius 34.2649
lwrist -4.69352
lhand -21.234 22.5906
lfingers 7.12502
lthumb 5.14838 52.5081
rfemur -5.02321 2.76711 13.6811
rtibia 29.2551
rfoot -23.2939 11.4797
rtoes 2.83269
lfemur -12.6025 -16.9328 -3.36757
ltibia 20.5938
lfoot -2.31028 -3.01678
ltoes -4.0084
172
root 14.6026 17.7252 -1.54675 -165.936 -85.756 164.767
lowerback 14.0626 2.34095 2.94938
upperback 1.98407 3.49139 0.720771
thorax -5.64259 1.61531 -1.54635
lowerneck -15.1617 -0.331606 -10.0306
upperneck 38.5209 -0.550335 4.69986
head 16.4038 -1.53915 3.63135
rclavicle -4.68138e-014 -7.15625e-015
rhumerus -32.8335 -16.4929 -72.5501
rradius 38.0879
rwrist 3.76223
rhand -17.2235 7.93332
rfingers 7.12502
rthumb 9.01965 -21.8538
lclavicle -4.68138e-014 -7.15625e-015
lhumerus -34.563 14.4685 76.9544
lradius 34.1036
lwrist -4.712
lhand -21.3799 22.1792
lfingers 7.12502
lthumb 5.00753 52.1
rfemur -4.92348 3.23985 13.273
rtibia 29.2742
rfoot -23.1597 11.9812
rtoes 4.28113
lfemur -11.8679 -17.9015 -2.93758
ltibia 19.458
lfoot -1.17452 -2.9257
ltoes -3.51569
173
root 14.558 17.7119 -1.44933 -168.83 -85.0243 167.6
lowerback 13.9448 2.49612 2.8933
upperback 2.01707 3.68197 0.715047
thorax -5.5375 1.71213 -1.54816
lowerneck -15.0611 -0.348213 -10.0628
upperneck 38.4843 -0.61142 4.76188
head 16.3658 -1.56279 3.65081
rclavicle -1.89839e-014 7.95139e-015
rhumerus -32.8322 -16.5655 -72.5495
rradius 37.8725
rwrist 4.03425
rhand -17.0511 7.85721
rfingers 7.12502
rthumb 9.18604 -21.9227
lclavicle -1.89839e-014 7.95139e-015
lhumerus -34.587 14.695 76.7708
lradius 33.9416
lwrist -4.98161
lhand -21.3856 22.1336
lfingers 7.12502
lthumb 5.002 52.0546
rfemur -4.91636 3.50159 12.8747
rtibia 29.2793
rfoot -22.9407 12.9223
rtoes 6.3264
lfemur -11.1789 -18.7136 -2.46768
ltibia 18.3924
lfoot -0.794432 -2.45589
ltoes -2.90587
174
root 14.5171 17.6941 -1.34781 -171.144 -84.3601 169.839
lowerback 13.9264 2.61552 2.93983
upperback 2.02836 3.84599 0.735705
thorax -5.50653 1.79207 -1.58026
lowerneck -15.0617 -0.400268 -10.4611
upperneck 38.5577 -0.707808 5.09823
head 16.4178 -1.62339 3.85812
rclavicle -7.7526e-015 6.36111e-015
rhumerus -32.8495 -16.5742 -72.524
rradius 37.7088
rwrist 3.99496
rhand -16.9625 7.68785
rfingers 7.12502
rthumb 9.2715 -22.0883
lclavicle -7.7526e-015 6.36111e-015
lhumerus -34.6865 14.8273 76.6857
lradius 33.8804
lwrist -5.13919
lhand -21.3881 22.0821
lfingers 7.12502
lthumb 4.99958 52.0031
rfemur -4.88296 3.92209 12.5228
rtibia 29.2871
rfoot -22.6012 13.6571
rtoes 8.53369
lfemur -10.5445 -19.1673 -2.04587
ltibia 17.4368
lfoot -0.856563 -2.26932
ltoes -2.63047
175
root 14.4708 17.6733 -1.24241 -173.576 -83.6856 172.187
lowerback 13.8941 2.6897 3.0145
upperback 2.04583 3.95557 0.797696
thorax -5.46475 1.84515 -1.57393
lowerneck -15.097 -0.37199 -10.6322
upperneck 38.6511 -0.657729 5.19134
head 16.4712 -1.62468 3.94224
rclavicle 2.25621e-014 1.03368e-014
rhumerus -32.8918 -16.6433 -72.45
rradius 37.6411
rwrist 4.32259
rhand -16.4943 7.50715
rfingers 7.12502
rthumb 9.72328 -22.2484
lclavicle 2.25621e-014 1.03368e-014
lhumerus -34.7537 15.237 76.5084
lradius 33.6712
lwrist -5.34993
lhand -21.3613 22.2806
lfingers 7.12502
lthumb 5.02546 52.201
rfemur -4.83034 4.40319 12.2894
rtibia 29.3061
rfoot -22.565 13.7772
rtoes 8.30672
lfemur -9.87945 -19.3874 -1.65089
ltibia 16.6003
lfoot -1.10671 -2.82834
ltoes -4.10363
